<svg viewBox="0 0 24 24" fill="none" xmlns="http://www.w3.org/2000/svg">
                        <circle cx="12" cy="12" r="11" fill="#8B5CF6"/> <!-- violet-500 -->
                        <path fill-rule="evenodd" clip-rule="evenodd" d="M12 2C17.5228 2 22 6.47715 22 12C22 17.5228 17.5228 22 12 22C6.47715 22 2 17.5228 2 12C2 6.47715 6.47715 2 12 2ZM12 4C7.58172 4 4 7.58172 4 12C4 16.4183 7.58172 20 12 20C13.8214 20 15.4983 19.4024 16.8358 18.3914C15.8231 17.0375 15.1667 15.352 15.1667 13.5C15.1667 9.35786 11.8088 6 7.66667 6C7.25363 6 6.84888 6.04259 6.45976 6.12411C7.59756 4.81331 9.65863 4 12 4Z" fill="white"/>
                    </svg>